<svg xmlns="http://www.w3.org/2000/svg" width="53" height="55" viewBox="0 0 53 55" fill="none">
    <path d="M13.25 50.4167C12.0355 50.4167 10.9957 49.9679 10.1308 49.0703C9.26584 48.1728 8.83337 47.0938 8.83337 45.8333V18.3333C8.83337 17.0729 9.26584 15.9939 10.1308 15.0964C10.9957 14.1988 12.0355 13.75 13.25 13.75H17.6667C17.6667 11.2292 18.5316 9.07119 20.2615 7.27605C21.9914 5.48091 24.0709 4.58334 26.5 4.58334C28.9292 4.58334 31.0087 5.48091 32.7386 7.27605C34.4684 9.07119 35.3334 11.2292 35.3334 13.75H39.75C40.9646 13.75 42.0044 14.1988 42.8693 15.0964C43.7342 15.9939 44.1667 17.0729 44.1667 18.3333V45.8333C44.1667 47.0938 43.7342 48.1728 42.8693 49.0703C42.0044 49.9679 40.9646 50.4167 39.75 50.4167H13.25ZM13.25 45.8333H39.75V18.3333H35.3334V22.9167C35.3334 23.566 35.1217 24.1103 34.6985 24.5495C34.2752 24.9887 33.7507 25.2083 33.125 25.2083C32.4993 25.2083 31.9749 24.9887 31.5516 24.5495C31.1283 24.1103 30.9167 23.566 30.9167 22.9167V18.3333H22.0834V22.9167C22.0834 23.566 21.8717 24.1103 21.4485 24.5495C21.0252 24.9887 20.5007 25.2083 19.875 25.2083C19.2493 25.2083 18.7249 24.9887 18.3016 24.5495C17.8783 24.1103 17.6667 23.566 17.6667 22.9167V18.3333H13.25V45.8333ZM22.0834 13.75H30.9167C30.9167 12.4896 30.4842 11.4106 29.6193 10.513C28.7544 9.61546 27.7146 9.16668 26.5 9.16668C25.2855 9.16668 24.2457 9.61546 23.3808 10.513C22.5158 11.4106 22.0834 12.4896 22.0834 13.75Z"
          fill="black"/>
</svg>