<svg width="33" height="29" viewBox="0 0 33 29" fill="none" xmlns="http://www.w3.org/2000/svg">
<path d="M15.3313 26.5834C14.9875 26.5834 14.6438 26.5229 14.3 26.4021C13.9563 26.2813 13.6469 26.1 13.3719 25.8584L3.54063 17.2188C3.26562 16.9771 3.0651 16.7103 2.93906 16.4182C2.81302 16.1262 2.75 15.8292 2.75 15.5271C2.75 15.225 2.81302 14.9229 2.93906 14.6209C3.0651 14.3188 3.26562 14.0469 3.54063 13.8052L15.6406 3.14169C15.8927 2.92016 16.1906 2.74394 16.5344 2.61304C16.8781 2.48214 17.2333 2.41669 17.6 2.41669H27.4656C28.2219 2.41669 28.8693 2.65332 29.4078 3.12658C29.9464 3.59985 30.2156 4.16877 30.2156 4.83335V13.5031C30.2156 13.8254 30.1469 14.1325 30.0094 14.4245C29.8719 14.7165 29.6771 14.9733 29.425 15.1948L17.2906 25.8584C17.0156 26.1 16.7063 26.2813 16.3625 26.4021C16.0188 26.5229 15.675 26.5834 15.3313 26.5834ZM15.3313 24.1667L27.4656 13.4729V4.83335H17.6344L5.5 15.5271L15.3313 24.1667ZM24.0281 9.66669C24.601 9.66669 25.088 9.49047 25.4891 9.13804C25.8901 8.78561 26.0906 8.35766 26.0906 7.85419C26.0906 7.35071 25.8901 6.92276 25.4891 6.57033C25.088 6.2179 24.601 6.04169 24.0281 6.04169C23.4552 6.04169 22.9682 6.2179 22.5672 6.57033C22.1661 6.92276 21.9656 7.35071 21.9656 7.85419C21.9656 8.35766 22.1661 8.78561 22.5672 9.13804C22.9682 9.49047 23.4552 9.66669 24.0281 9.66669Z" fill="black"/>
</svg>
