<svg width="14" height="12" viewBox="0 0 14 12" fill="none" xmlns="http://www.w3.org/2000/svg">
<path d="M2.91667 9.5H3.74792L9.45 4.6125L8.61875 3.9L2.91667 8.7875V9.5ZM1.75 10.5V8.375L9.45 1.7875C9.56667 1.69583 9.69549 1.625 9.83646 1.575C9.97743 1.525 10.1257 1.5 10.2812 1.5C10.4368 1.5 10.5875 1.525 10.7333 1.575C10.8792 1.625 11.0056 1.7 11.1125 1.8L11.9146 2.5C12.0312 2.59167 12.1163 2.7 12.1698 2.825C12.2233 2.95 12.25 3.075 12.25 3.2C12.25 3.33333 12.2233 3.46042 12.1698 3.58125C12.1163 3.70208 12.0312 3.8125 11.9146 3.9125L4.22917 10.5H1.75ZM9.02708 4.2625L8.61875 3.9L9.45 4.6125L9.02708 4.2625Z" fill="black"/>
</svg>
