<svg xmlns="http://www.w3.org/2000/svg" width="53" height="55" viewBox="0 0 53 55" fill="none">
    <path d="M26.5 48.125L23.2979 45.1458C19.5805 41.6701 16.5073 38.6719 14.0781 36.151C11.6489 33.6302 9.71663 31.3672 8.28121 29.362C6.84579 27.3568 5.84284 25.5139 5.27236 23.8333C4.70187 22.1528 4.41663 20.434 4.41663 18.6771C4.41663 15.0868 5.576 12.0885 7.89475 9.68228C10.2135 7.27603 13.1027 6.07291 16.5625 6.07291C18.4763 6.07291 20.2982 6.49305 22.0281 7.33332C23.7579 8.1736 25.2486 9.35763 26.5 10.8854C27.7514 9.35763 29.242 8.1736 30.9718 7.33332C32.7017 6.49305 34.5236 6.07291 36.4375 6.07291C39.8972 6.07291 42.7864 7.27603 45.1052 9.68228C47.4239 12.0885 48.5833 15.0868 48.5833 18.6771C48.5833 20.434 48.2981 22.1528 47.7276 23.8333C47.1571 25.5139 46.1541 27.3568 44.7187 29.362C43.2833 31.3672 41.351 33.6302 38.9218 36.151C36.4927 38.6719 33.4194 41.6701 29.702 45.1458L26.5 48.125ZM26.5 41.9375C30.0333 38.6528 32.9409 35.8359 35.2229 33.487C37.5048 31.138 39.3083 29.0946 40.6333 27.3568C41.9583 25.6189 42.8784 24.072 43.3937 22.7161C43.909 21.3602 44.1666 20.0139 44.1666 18.6771C44.1666 16.3854 43.4305 14.4757 41.9583 12.9479C40.4861 11.4201 38.6458 10.6562 36.4375 10.6562C34.7076 10.6562 33.1066 11.1623 31.6343 12.1745C30.1621 13.1866 29.15 14.4757 28.5979 16.0417H24.402C23.85 14.4757 22.8378 13.1866 21.3656 12.1745C19.8934 11.1623 18.2923 10.6562 16.5625 10.6562C14.3541 10.6562 12.5138 11.4201 11.0416 12.9479C9.5694 14.4757 8.83329 16.3854 8.83329 18.6771C8.83329 20.0139 9.09093 21.3602 9.60621 22.7161C10.1215 24.072 11.0416 25.6189 12.3666 27.3568C13.6916 29.0946 15.4951 31.138 17.777 33.487C20.059 35.8359 22.9666 38.6528 26.5 41.9375Z"
          fill="black"/>
</svg>