<svg xmlns="http://www.w3.org/2000/svg" fill="none" viewBox="0 0 32 24" aria-hidden="true" focusable="false">
  <path fill-rule="evenodd" clip-rule="evenodd" d="M15.005 12.14v2.886h-.911V7.902h2.416a2.16 2.16 0 011.563.619c.826.772.877 2.073.101 2.909l-.101.102c-.425.403-.946.608-1.563.608h-1.505zm0-3.364v2.489h1.528c.34.011.668-.125.9-.37a1.257 1.257 0 00-.028-1.766 1.24 1.24 0 00-.872-.353h-1.528zm5.824 1.216c.673 0 1.205.182 1.596.54.39.358.583.858.583 1.488v3.006h-.872v-.676h-.04c-.379.556-.877.835-1.505.835-.532 0-.985-.16-1.341-.477a1.51 1.51 0 01-.538-1.193c0-.506.192-.904.572-1.205.379-.3.888-.449 1.522-.449.543 0 .985.103 1.336.296v-.21a1.07 1.07 0 00-.374-.813 1.322 1.322 0 00-.877-.335c-.51 0-.911.216-1.205.648l-.804-.506c.43-.63 1.08-.949 1.947-.949zm-1.177 3.54c0 .238.113.46.3.596a1.1 1.1 0 00.707.239c.385 0 .753-.154 1.024-.426.3-.284.453-.62.453-1.006-.283-.227-.679-.34-1.188-.335-.368 0-.68.09-.929.267-.243.176-.367.398-.367.665z" fill="#3C4043"></path>
  <path d="M24.966 17.168l3.045-7.017h-.99l-1.41 3.5h-.017l-1.443-3.5h-.99l1.997 4.562-1.132 2.455h.94z" fill="#3C4043"></path>
  <path fill-rule="evenodd" clip-rule="evenodd" d="M11.32 11.515a5.07 5.07 0 00-.067-.83H7.41v1.574h2.2c-.09.506-.385.96-.815 1.244v1.023h1.313c.77-.71 1.211-1.761 1.211-3.011z" fill="#4285F4"></path>
  <path fill-rule="evenodd" clip-rule="evenodd" d="M7.41 15.514c1.098 0 2.026-.363 2.7-.988l-1.314-1.023c-.368.25-.837.392-1.386.392-1.064 0-1.964-.721-2.287-1.687H3.771v1.057a4.07 4.07 0 003.639 2.25z" fill="#34A853"></path>
  <path fill-rule="evenodd" clip-rule="evenodd" d="M5.123 12.208a2.477 2.477 0 010-1.568V9.589H3.77a4.07 4.07 0 000 3.67l1.353-1.051z" fill="#FBBC04"></path>
  <path fill-rule="evenodd" clip-rule="evenodd" d="M7.41 8.953a2.189 2.189 0 011.562.613l1.166-1.17A3.925 3.925 0 007.41 7.333c-1.54 0-2.949.875-3.64 2.256l1.353 1.057c.323-.972 1.223-1.693 2.287-1.693z" fill="#EA4335"></path>
</svg>