<svg xmlns="http://www.w3.org/2000/svg" width="53" height="55" viewBox="0 0 53 55" fill="none">
    <path d="M26.5 27.5C24.0709 27.5 21.9914 26.6024 20.2615 24.8073C18.5316 23.0121 17.6667 20.8542 17.6667 18.3333C17.6667 15.8125 18.5316 13.6545 20.2615 11.8594C21.9914 10.0642 24.0709 9.16666 26.5 9.16666C28.9292 9.16666 31.0087 10.0642 32.7386 11.8594C34.4684 13.6545 35.3334 15.8125 35.3334 18.3333C35.3334 20.8542 34.4684 23.0121 32.7386 24.8073C31.0087 26.6024 28.9292 27.5 26.5 27.5ZM8.83337 45.8333V39.4167C8.83337 38.118 9.15542 36.9245 9.79952 35.8359C10.4436 34.7474 11.2993 33.9167 12.3667 33.3437C14.6487 32.1597 16.9674 31.2717 19.323 30.6797C21.6785 30.0877 24.0709 29.7917 26.5 29.7917C28.9292 29.7917 31.3216 30.0877 33.6771 30.6797C36.0327 31.2717 38.3514 32.1597 40.6334 33.3437C41.7007 33.9167 42.5565 34.7474 43.2006 35.8359C43.8447 36.9245 44.1667 38.118 44.1667 39.4167V45.8333H8.83337ZM13.25 41.25H39.75V39.4167C39.75 38.9965 39.6488 38.6146 39.4464 38.2708C39.244 37.9271 38.9771 37.6597 38.6459 37.4687C36.6584 36.4375 34.6525 35.6641 32.6282 35.1484C30.6039 34.6328 28.5612 34.375 26.5 34.375C24.4389 34.375 22.3962 34.6328 20.3719 35.1484C18.3476 35.6641 16.3417 36.4375 14.3542 37.4687C14.023 37.6597 13.7561 37.9271 13.5537 38.2708C13.3513 38.6146 13.25 38.9965 13.25 39.4167V41.25ZM26.5 22.9167C27.7146 22.9167 28.7544 22.4679 29.6193 21.5703C30.4842 20.6727 30.9167 19.5937 30.9167 18.3333C30.9167 17.0729 30.4842 15.9939 29.6193 15.0963C28.7544 14.1988 27.7146 13.75 26.5 13.75C25.2855 13.75 24.2457 14.1988 23.3808 15.0963C22.5158 15.9939 22.0834 17.0729 22.0834 18.3333C22.0834 19.5937 22.5158 20.6727 23.3808 21.5703C24.2457 22.4679 25.2855 22.9167 26.5 22.9167Z" fill="black"/>
</svg>